<svg version="1.0" xmlns="http://www.w3.org/2000/svg"
 width="1004" height="1200" viewBox="0 0 1004.026540 1200.248705"
 preserveAspectRatio="xMidYMid meet">
<metadata>
For more coloring pages, please visit ColoringAll.com
</metadata>
<g transform="translate(-0.520856,1200.866253) scale(0.100000,-0.100000)"
fill="#000000" stroke="none">
<path d="M2426 11966 c-56 -96 -99 -281 -88 -383 2 -24 2 -43 -1 -43 -3 0 -29
30 -59 68 -63 77 -197 178 -303 227 -87 41 -204 74 -288 82 l-64 6 -6 -64 c-4
-35 -3 -109 2 -164 4 -55 7 -101 6 -102 -1 -2 -29 2 -62 8 l-61 11 -7 46 c-14
96 -30 101 -129 41 l-68 -41 -127 60 c-69 33 -159 71 -199 83 -88 28 -92 25
-92 -73 0 -63 -9 -83 -26 -57 -10 16 -126 69 -152 69 -17 0 -24 -7 -29 -30 -3
-17 -8 -29 -12 -28 -3 2 -31 16 -62 31 -87 43 -308 73 -349 47 -42 -27 8 -344
85 -531 5 -14 -10 -23 -79 -49 -54 -21 -86 -38 -86 -47 0 -8 29 -45 64 -81
l64 -67 -54 -59 c-66 -73 -97 -134 -102 -206 -3 -48 -1 -58 20 -76 30 -28 107
-54 162 -54 23 0 46 -3 49 -6 4 -4 -24 -35 -61 -69 -110 -102 -141 -180 -162
-409 -10 -100 -18 -137 -57 -240 -54 -143 -68 -218 -82 -426 -21 -302 12 -426
146 -552 121 -113 291 -146 447 -88 104 39 184 158 173 256 -16 143 -194 229
-308 149 -51 -36 -87 -91 -71 -107 13 -13 35 -4 91 37 52 38 128 35 175 -6 65
-57 58 -147 -15 -214 -61 -55 -94 -65 -209 -65 -91 0 -106 3 -158 29 -126 64
-202 194 -202 347 0 96 90 221 231 321 l45 31 28 -54 c55 -105 229 -237 288
-218 92 28 166 161 182 324 4 38 1 101 -7 153 l-14 88 40 52 c39 51 97 161 97
183 0 14 14 20 109 45 152 41 283 121 362 223 l44 56 50 -5 c204 -23 219 -20
205 39 -4 18 -15 54 -25 79 l-17 45 60 59 c93 91 105 175 42 296 -35 68 -37
78 -10 95 19 11 20 10 20 -31 0 -83 71 -121 255 -138 172 -16 310 -4 434 37
161 54 247 109 402 261 l76 75 120 -11 c155 -14 297 -50 402 -102 66 -33 103
-60 166 -123 274 -274 452 -669 489 -1088 7 -77 16 -74 -86 -29 -73 31 -144
50 -157 41 -10 -6 -9 -14 3 -38 9 -17 34 -100 57 -184 50 -190 71 -238 141
-316 l56 -62 7 -262 c3 -145 5 -459 3 -698 l-4 -435 -43 -195 c-42 -187 -44
-202 -43 -355 0 -184 8 -252 63 -535 91 -472 108 -617 116 -955 6 -283 -3
-408 -46 -638 -69 -361 -96 -695 -88 -1114 5 -319 13 -386 91 -786 33 -168 42
-235 36 -253 -46 -120 -65 -265 -80 -594 -26 -598 -94 -958 -267 -1410 -80
-209 -135 -312 -208 -385 -114 -116 -556 -388 -585 -359 -5 5 -15 59 -21 119
-12 129 -26 188 -42 182 -18 -6 -27 -52 -40 -207 l-13 -145 -44 90 c-70 141
-90 130 -117 -69 -10 -69 -21 -125 -24 -123 -4 1 -42 49 -86 107 -43 58 -86
106 -95 108 -22 4 -30 -21 -37 -112 l-6 -78 -29 28 c-16 16 -69 80 -119 142
-59 75 -95 112 -106 110 -23 -5 -16 -45 25 -144 19 -45 34 -85 34 -87 0 -2
-21 -7 -47 -10 -40 -4 -54 -12 -90 -50 -49 -52 -52 -72 -22 -134 38 -78 39
-78 409 -76 179 1 546 8 815 17 883 29 1226 36 2350 46 1291 11 1582 16 1656
30 148 27 164 193 27 282 l-49 31 -432 -7 c-515 -9 -575 -4 -692 53 -154 75
-204 140 -312 406 -50 123 -76 202 -83 250 -13 98 -52 1107 -91 2325 -12 388
-13 361 35 765 53 442 46 1086 -19 1760 -14 141 -20 320 -46 1405 -6 245 -14
490 -19 545 -11 141 -11 909 0 1285 10 330 22 539 44 752 13 126 14 128 52
174 125 149 171 230 204 360 23 88 25 141 8 229 -10 58 -9 65 10 96 38 63 86
99 148 115 125 33 259 131 330 241 18 29 36 53 38 53 3 0 35 -7 73 -16 84 -20
155 -14 254 22 88 32 217 92 278 130 45 27 46 23 5 -32 -34 -46 -35 -77 -4
-94 11 -6 70 -22 132 -35 62 -14 123 -28 136 -30 20 -5 22 -12 22 -63 1 -31 7
-75 15 -97 8 -22 15 -44 15 -48 0 -5 -46 16 -102 45 -100 51 -166 106 -240
196 -44 54 -78 19 -44 -46 21 -41 133 -144 201 -184 33 -20 105 -53 160 -74
l100 -39 240 0 c206 0 246 3 285 18 68 27 90 53 90 104 0 46 6 51 36 29 16
-12 17 -18 7 -33 -95 -138 -89 -244 23 -364 l45 -47 -23 -66 c-36 -103 -12
-119 145 -96 l78 11 97 -93 c113 -108 198 -158 320 -187 45 -11 86 -22 91 -26
6 -3 24 -34 41 -69 16 -35 47 -88 67 -117 l37 -54 6 -195 c5 -163 9 -201 24
-230 61 -115 121 -167 181 -156 76 15 212 131 257 221 11 22 22 42 24 44 2 2
38 -22 79 -54 153 -117 200 -200 193 -340 -7 -132 -76 -233 -202 -297 -153
-77 -364 -28 -412 98 -54 140 109 241 232 143 68 -54 115 -16 53 42 -48 45
-102 69 -155 69 -60 0 -100 -20 -159 -80 -48 -49 -50 -52 -48 -108 2 -79 26
-134 84 -186 176 -158 513 -84 626 138 58 113 66 180 53 431 -11 221 -26 302
-85 453 -21 55 -40 128 -46 175 -38 295 -54 349 -127 424 -26 27 -62 60 -81
74 l-34 25 96 16 c54 9 109 23 123 33 25 16 26 21 22 83 -4 83 -33 143 -100
217 l-50 55 61 67 c34 37 61 74 61 81 0 7 -34 28 -75 47 -86 39 -88 44 -55
141 30 86 57 234 65 352 l7 102 -49 0 c-118 0 -261 -33 -378 -86 -6 -2 -16 9
-22 26 -6 16 -17 30 -25 30 -7 0 -46 -16 -87 -35 -40 -19 -74 -35 -76 -35 -2
0 -5 30 -7 68 l-3 67 -31 3 c-40 4 -203 -56 -311 -114 l-82 -45 -47 36 c-26
20 -60 43 -77 52 -29 15 -32 14 -48 -5 -9 -12 -19 -43 -23 -70 -7 -57 -15 -62
-88 -62 l-51 0 7 38 c3 20 9 88 13 149 7 135 11 132 -119 114 -206 -27 -431
-150 -550 -301 l-43 -54 -7 79 c-14 162 -73 349 -119 378 -21 13 -171 -76
-292 -172 -90 -72 -110 -81 -227 -101 -75 -14 -231 -62 -309 -96 -64 -29 -64
-29 -56 -5 8 25 10 90 2 97 -21 21 -154 56 -244 65 -158 15 -260 -9 -398 -93
-38 -22 -70 -37 -72 -32 -2 5 -9 20 -16 34 -20 38 -83 34 -182 -13 -43 -21
-79 -36 -79 -35 -1 2 -7 28 -13 58 -6 30 -16 68 -22 84 -11 27 -13 28 -58 21
-119 -18 -249 -97 -310 -190 -65 -99 -55 -100 -97 13 -47 125 -88 192 -116
192 -30 0 -148 -62 -210 -111 -58 -46 -55 -47 -92 20 -10 17 -24 34 -33 37
-32 12 -101 -31 -187 -117 l-86 -87 -30 47 c-36 55 -125 142 -169 165 l-32 16
-47 -55 c-25 -30 -53 -55 -60 -55 -8 0 -56 18 -107 40 -52 22 -124 48 -161 57
l-67 18 -20 -25 c-11 -14 -36 -56 -56 -95 -51 -101 -45 -97 -118 -70 -153 58
-369 99 -570 109 -204 11 -196 8 -290 97 -92 87 -164 136 -260 179 l-64 29
-25 -43z m90 -187 c30 -61 53 -118 50 -126 -7 -17 -48 -11 -113 17 -39 17 -43
22 -43 54 0 32 38 166 46 166 2 0 29 -50 60 -111z m143 42 l25 -19 -18 -46
c-10 -25 -22 -46 -27 -46 -5 0 -29 41 -54 91 l-46 91 48 -26 c26 -15 59 -35
72 -45z m4841 29 c0 -6 -13 -37 -30 -70 l-30 -59 -30 17 c-16 9 -30 22 -30 28
0 11 42 51 80 77 30 19 40 21 40 7z m124 -69 c26 -88 22 -107 -24 -131 -42
-22 -130 -38 -130 -25 0 10 98 194 113 213 14 18 23 6 41 -57z m-5789 40 c87
-24 105 -44 105 -117 0 -31 -4 -54 -11 -54 -5 0 -54 43 -107 95 -107 104 -106
109 13 76z m6485 -9 c0 -17 -172 -172 -191 -172 -5 0 -9 29 -9 65 l0 64 73 22
c39 11 77 22 82 24 19 7 45 5 45 -3z m-6598 -69 c35 -33 37 -57 6 -48 -30 9
-35 15 -43 48 -9 34 1 34 37 0z m1058 -45 c0 -11 -47 -10 -54 0 -3 5 -2 19 1
31 l6 22 23 -22 c13 -12 24 -26 24 -31z m-713 17 c49 -29 57 -50 58 -145 0
-59 -2 -65 -22 -68 -15 -2 -35 10 -62 39 -38 38 -41 45 -41 98 0 57 8 101 18
101 3 0 25 -11 49 -25z m-947 -48 c76 -37 105 -57 104 -69 -1 -15 -64 -107
-133 -197 l-18 -24 -57 109 c-57 111 -80 183 -69 223 8 32 43 24 173 -42z
m3940 53 c0 -18 -32 -90 -40 -90 -12 0 -20 28 -13 48 13 36 53 68 53 42z m599
-49 c14 -53 14 -55 -13 -106 -28 -55 -96 -127 -102 -110 -2 6 -22 38 -44 73
-42 66 -63 75 -113 52 -12 -6 2 11 31 38 68 63 157 113 197 109 27 -2 31 -7
44 -56z m2711 40 c0 -20 -18 -31 -53 -31 -20 0 -20 0 3 25 28 30 50 32 50 6z
m-1810 -9 l25 -10 -30 -12 c-16 -7 -107 -38 -202 -71 -158 -54 -245 -91 -315
-136 -15 -9 -30 -14 -34 -11 -14 15 9 81 42 118 37 40 166 113 230 130 47 11
249 6 284 -8z m-2196 -64 c80 -91 117 -188 82 -217 -12 -10 -33 7 -113 89 -54
56 -100 106 -102 111 -1 6 9 28 24 49 33 47 42 45 109 -32z m3681 25 c3 -27 8
-60 10 -75 3 -21 -5 -35 -45 -72 -55 -51 -65 -55 -80 -27 -28 53 1 157 56 200
41 32 52 27 59 -26z m1055 -16 c0 -67 2 -62 -87 -224 -37 -69 -39 -71 -52 -50
-8 12 -42 61 -77 108 -35 48 -64 92 -64 98 0 14 235 131 263 131 14 0 17 -10
17 -63z m-8644 45 c6 -4 14 -15 17 -26 8 -22 -1 -86 -13 -86 -8 0 -80 101 -80
113 0 9 62 9 76 -1z m3452 -94 c88 -130 154 -239 149 -244 -6 -7 -228 152
-255 182 -16 19 -20 32 -15 52 8 34 41 112 47 112 2 0 35 -46 74 -102z m1252
20 c0 -9 -13 -20 -30 -27 -41 -14 -48 5 -25 66 l18 46 18 -34 c10 -19 18 -41
19 -51z m-1145 46 c61 -24 65 -28 65 -58 0 -47 -12 -106 -20 -106 -10 0 -90
112 -114 158 -20 39 -14 39 69 6z m775 -58 c0 -25 -28 -56 -51 -56 -16 0 -16
4 -3 48 24 80 24 80 39 52 8 -14 14 -34 15 -44z m4866 35 c-9 -16 -27 -43 -42
-61 -20 -24 -29 -28 -35 -18 -10 16 -12 92 -2 101 3 4 26 7 50 7 l44 0 -15
-29z m-8790 -75 c78 -78 140 -199 154 -301 11 -86 7 -107 -30 -128 -44 -26
-67 -21 -119 28 -54 51 -97 123 -117 199 -18 69 -28 193 -20 250 l7 46 32 -17
c18 -9 59 -43 93 -77z m553 -41 c-13 -118 -46 -242 -84 -314 -35 -65 -96 -141
-114 -141 -5 0 -30 23 -55 51 -43 48 -46 55 -46 108 1 97 52 182 204 339 l91
93 6 -31 c4 -17 3 -64 -2 -105z m-992 -20 c50 -66 126 -158 167 -204 42 -46
75 -85 74 -86 -5 -4 -221 14 -240 21 -21 6 -54 66 -74 133 -17 60 -44 215 -44
255 1 26 3 29 13 16 7 -9 53 -70 104 -135z m190 117 c24 -25 30 -45 50 -163
12 -74 20 -136 17 -138 -2 -2 -38 30 -80 70 l-76 75 12 84 c6 46 14 88 16 92
10 16 33 8 61 -20z m2641 8 c246 -31 479 -131 725 -310 123 -90 409 -371 497
-488 166 -222 237 -396 256 -623 6 -74 4 -91 -12 -118 -10 -17 -21 -31 -25
-31 -4 0 -10 25 -14 57 -22 177 -192 521 -351 708 -85 101 -226 239 -312 309
-200 160 -530 286 -907 344 -71 11 -147 27 -169 34 l-38 13 -2 64 -1 64 136
-7 c74 -3 172 -11 217 -16z m1701 -29 c13 -41 15 -128 2 -136 -16 -9 -33 33
-38 96 -9 94 10 115 36 40z m2131 34 c-13 -15 -111 -55 -137 -55 -13 0 -14 2
-2 17 19 23 88 53 123 53 24 0 26 -2 16 -15z m-4275 -35 c0 -26 -5 -36 -18
-38 -50 -10 -132 27 -110 49 14 14 70 28 103 26 22 -2 25 -7 25 -37z m2972
-106 c-46 -77 -100 -168 -120 -204 -52 -94 -64 -109 -77 -90 -5 8 -10 42 -10
75 0 80 34 150 107 224 52 51 173 143 181 136 1 -1 -35 -65 -81 -141z m859
101 c-7 -28 -59 -65 -91 -65 -35 0 -157 -66 -213 -114 -30 -25 -57 -46 -62
-46 -10 0 -40 97 -40 127 0 16 21 26 118 56 233 73 277 85 286 77 5 -5 6 -20
2 -35z m712 14 c3 -30 -40 -89 -66 -89 -26 0 -52 31 -52 62 0 15 1 28 3 28 1
0 20 7 42 15 53 19 69 15 73 -16z m-5536 7 c38 -14 138 -91 138 -107 0 -14
-107 -11 -144 5 -35 15 -116 82 -116 96 0 9 29 17 65 18 11 1 37 -5 57 -12z
m6917 -82 c51 -53 113 -127 138 -165 43 -65 47 -75 51 -147 l4 -77 -51 -49
-51 -50 -26 25 c-75 68 -131 192 -158 349 -25 147 -29 210 -13 210 8 0 56 -43
106 -96z m577 70 c10 -37 -3 -209 -19 -269 -46 -168 -166 -275 -246 -218 -22
15 -23 20 -18 92 11 134 42 206 139 316 42 47 113 105 129 105 5 0 12 -12 15
-26z m188 -11 c3 -21 6 -65 6 -99 l0 -60 -71 -75 -70 -74 6 55 c3 30 10 93 14
140 8 81 10 86 46 117 21 18 44 33 50 33 7 0 15 -17 19 -37z m241 -20 c-11
-93 -43 -219 -76 -299 l-31 -74 -125 0 -124 0 89 103 c49 56 128 153 176 215
48 61 89 112 92 112 3 0 2 -26 -1 -57z m-7481 -46 c25 -41 46 -76 46 -80 0 -9
-70 -27 -107 -27 -23 0 -33 5 -33 15 0 15 42 165 46 165 2 0 23 -33 48 -73z
m3677 -33 c-20 -167 -90 -375 -165 -494 l-33 -53 -26 44 c-15 25 -34 66 -44
91 l-17 47 56 113 c64 127 149 271 192 324 41 52 50 34 37 -72z m2404 95 c12
-19 -72 -87 -127 -104 -58 -17 -114 -20 -123 -6 -6 10 57 73 103 103 30 20
136 25 147 7z m-1462 -5 c12 -12 -14 -44 -57 -69 -48 -28 -66 -31 -66 -12 0
33 103 101 123 81z m762 -80 c-3 -23 -11 -47 -18 -52 -12 -10 -257 -65 -263
-59 -4 4 54 118 68 132 5 6 55 22 111 36 116 29 115 29 102 -57z m-3447 56
c39 -24 38 -27 -13 -137 -19 -40 -39 -73 -45 -73 -11 0 -14 168 -4 208 8 27
20 28 62 2z m442 -84 c0 -87 -14 -102 -39 -46 -37 81 -20 181 22 129 12 -15
17 -39 17 -83z m2518 42 c49 -73 55 -87 41 -104 -13 -16 -82 -54 -97 -54 -27
0 -132 116 -132 145 0 11 104 54 132 54 21 1 34 -9 56 -41z m692 20 c0 -12 8
-45 17 -75 22 -69 13 -80 -54 -67 -63 12 -68 36 -19 110 38 57 56 68 56 32z
m-5282 -4 c29 -8 28 -16 -7 -53 -26 -28 -35 -31 -85 -31 -55 0 -56 0 -56 29 0
20 8 35 22 45 23 16 84 21 126 10z m2622 -18 c0 -43 -12 -58 -64 -82 -53 -25
-116 -32 -116 -14 0 17 27 65 44 79 20 17 85 40 114 41 17 0 22 -6 22 -24z
m-3517 -29 c53 -121 53 -117 0 -59 -26 29 -63 64 -82 77 l-35 25 50 0 c48 0
49 -1 67 -43z m1101 15 c9 -14 -12 -35 -28 -29 -23 9 -20 37 3 37 11 0 22 -4
25 -8z m2058 -14 c4 -70 -20 -98 -88 -98 -36 0 -44 3 -44 18 0 24 18 47 60 76
45 32 70 33 72 4z m3623 -13 c-16 -14 -47 -39 -67 -56 l-38 -30 16 38 c30 71
32 73 77 73 l42 0 -30 -25z m-5787 -10 c22 -47 11 -55 -44 -35 l-27 11 23 24
c29 31 34 31 48 0z m2677 -55 c-30 -74 -45 -77 -45 -8 0 28 7 42 31 63 17 14
34 23 37 20 3 -2 -8 -37 -23 -75z m129 43 c23 -52 46 -141 46 -180 l0 -33 -72
27 c-40 14 -75 28 -77 29 -4 3 27 92 55 160 8 18 18 34 23 34 4 0 16 -17 25
-37z m1106 17 c0 -12 -277 -290 -290 -290 -35 0 22 120 86 182 27 26 81 63
119 83 75 37 85 40 85 25z m106 -18 c-8 -10 -29 -25 -46 -36 -32 -18 -32 -18
-21 2 15 28 61 63 73 56 5 -3 3 -13 -6 -22z m268 -48 c32 -42 55 -81 53 -88
-5 -14 -102 -46 -139 -46 -28 0 -47 18 -72 68 -28 55 -18 83 39 114 28 15 53
28 56 28 3 0 31 -34 63 -76z m-5363 8 c46 -41 105 -119 97 -127 -2 -2 -43 -11
-92 -20 -50 -9 -106 -23 -125 -31 -19 -8 -36 -12 -39 -9 -6 6 47 217 59 231
15 19 45 5 100 -44z m1325 44 c7 -18 -42 -115 -62 -123 -10 -4 -29 7 -50 28
l-34 35 56 37 c61 40 82 45 90 23z m1410 -21 l26 -35 -30 -88 c-17 -48 -36
-100 -42 -116 l-11 -29 -39 38 c-22 22 -40 48 -40 60 0 34 88 205 105 205 2 0
16 -16 31 -35z m-2506 4 c19 -6 78 -10 131 -10 83 1 100 -2 123 -20 14 -11 26
-26 25 -32 0 -12 -172 -147 -186 -147 -16 1 -143 189 -143 212 0 11 8 10 50
-3z m6740 -20 c13 -23 60 -202 55 -207 -3 -3 -201 33 -242 44 -20 5 -16 15 25
69 40 52 114 115 137 115 8 0 19 -9 25 -21z m-5521 -3 c9 -11 9 -22 -2 -49
-29 -68 -47 -49 -31 32 7 34 15 38 33 17z m1530 -49 c35 -54 41 -71 41 -115 0
-29 -4 -52 -9 -52 -16 0 -74 131 -79 180 -2 27 -2 50 1 50 2 0 23 -28 46 -63z
m3695 16 c-21 -38 -96 -154 -110 -171 -1 -2 -13 2 -26 9 -27 14 -188 130 -188
135 0 2 17 15 37 29 34 22 48 25 138 26 55 1 111 5 125 9 50 16 53 12 24 -37z
m-2151 -42 c-11 -42 -27 -44 -31 -3 -2 20 4 44 15 60 l18 27 3 -26 c2 -15 -1
-41 -5 -58z m105 -33 c4 -64 1 -76 -18 -100 -12 -16 -28 -28 -36 -28 -22 0
-17 53 17 184 15 56 31 32 37 -56z m-2770 41 c155 -43 200 -85 217 -204 l8
-49 -25 20 c-14 10 -45 35 -69 55 -24 20 -105 78 -179 129 -151 103 -150 103
48 49z m-948 21 c8 -5 11 -10 5 -10 -5 0 -17 5 -25 10 -8 5 -10 10 -5 10 6 0
17 -5 25 -10z m855 -112 c7 -8 5 -9 -7 -5 -9 3 -70 15 -135 27 -65 11 -121 22
-126 23 -4 1 5 19 20 40 l26 37 106 -56 c58 -31 111 -60 116 -66z m1910 34
c17 -51 15 -100 -5 -132 -7 -12 -12 -11 -30 5 -12 11 -33 41 -45 66 l-24 46
30 52 c29 49 32 52 44 34 7 -10 21 -42 30 -71z m1471 33 c31 -71 30 -77 -3
-69 -61 15 -133 46 -133 58 0 12 84 65 103 66 4 0 19 -25 33 -55z m-4110 35
c18 0 54 -40 54 -60 0 -30 -48 -26 -82 7 -35 34 -38 68 -5 59 12 -3 27 -6 33
-6z m-316 -10 c5 0 31 -19 57 -42 27 -24 59 -50 73 -59 23 -15 22 -16 -62 -37
l-86 -22 -67 25 c-37 14 -81 33 -97 41 -27 14 -29 18 -16 30 20 20 160 74 176
69 8 -3 18 -5 22 -5z m2794 4 c14 -5 13 -11 -4 -45 -11 -21 -23 -39 -26 -39
-3 0 -19 11 -36 25 -16 14 -40 25 -54 25 -30 0 -32 18 -1 24 12 3 31 7 42 9
32 7 62 7 79 1z m2461 -10 c-53 -40 -145 -76 -195 -76 -86 0 -81 20 13 51 68
23 137 38 177 40 24 0 25 0 5 -15z m-2717 -25 c5 -26 -42 -74 -103 -105 -48
-25 -57 -27 -66 -14 -11 17 -3 88 13 107 6 7 25 13 42 14 17 0 40 4 51 9 29
13 59 7 63 -11z m3035 -28 c80 -38 79 -46 -19 -85 -42 -17 -82 -26 -117 -25
-59 1 -208 39 -210 54 -1 6 36 29 83 53 75 37 92 42 140 39 36 -2 78 -14 123
-36z m-6115 4 c-3 -3 -9 2 -12 12 -6 14 -5 15 5 6 7 -7 10 -15 7 -18z m2671
-36 l28 -62 -28 -74 c-15 -41 -30 -78 -34 -81 -6 -6 -85 68 -85 80 0 20 74
198 82 198 5 0 22 -28 37 -61z m1615 2 c22 -32 26 -45 21 -74 -4 -20 -13 -44
-19 -53 -12 -16 -14 -16 -38 0 -50 33 -59 97 -22 154 18 27 22 25 58 -27z
m484 -14 c4 -37 -36 -105 -92 -154 -52 -46 -140 -96 -161 -91 -25 5 49 120
131 206 56 58 76 73 95 70 18 -2 25 -10 27 -31z m1743 10 c-10 -9 -11 -8 -5 6
3 10 9 15 12 12 3 -3 0 -11 -7 -18z m-4473 -78 c12 -18 30 -57 38 -87 17 -57
45 -205 40 -210 -14 -13 -113 95 -146 158 -7 13 -15 67 -18 119 l-5 95 34 -21
c19 -12 44 -36 57 -54z m-968 40 c0 -17 -100 -107 -170 -154 -58 -38 -170 -99
-170 -93 0 2 7 25 15 52 8 27 15 70 15 96 0 27 6 52 13 58 17 15 191 50 250
51 27 1 47 -4 47 -10z m-740 -28 c41 -16 74 -32 73 -36 -2 -10 -275 -107 -281
-101 -2 3 1 14 7 25 16 29 110 141 119 141 4 0 41 -13 82 -29z m2854 -58 c-3
-49 -10 -92 -15 -97 -8 -9 -69 78 -69 98 0 12 71 86 83 86 4 0 5 -39 1 -87z
m131 -14 l24 -46 -27 -25 c-15 -14 -38 -31 -50 -38 l-24 -12 7 79 c3 43 8 89
11 103 6 25 6 25 21 5 8 -11 25 -41 38 -66z m2998 33 c46 -51 80 -105 71 -115
-7 -7 -163 47 -223 78 l-44 22 63 31 c35 18 69 32 75 32 7 0 33 -22 58 -48z
m-6254 29 c21 -14 3 -32 -83 -86 -139 -86 -286 -135 -411 -135 -99 0 -101 9
-18 89 46 44 97 82 144 105 l72 36 141 0 c77 0 147 -4 155 -9z m3724 -56 c77
-79 147 -239 147 -337 0 -52 -73 -138 -97 -114 -3 3 -18 63 -34 133 -16 70
-45 183 -64 250 -19 67 -35 125 -35 128 0 12 39 -16 83 -60z m-339 -34 c23
-34 23 -40 13 -104 l-11 -69 -36 114 c-21 62 -41 122 -45 133 -11 28 46 -26
79 -74z m210 17 c30 -80 96 -323 96 -352 0 -14 -6 -11 -23 15 -20 30 -28 34
-67 34 -43 0 -45 2 -57 38 -21 62 -26 166 -14 246 18 117 28 120 65 19z m-656
-3 c-57 -91 -108 -103 -108 -24 0 29 5 41 18 45 9 3 37 14 62 24 25 10 50 18
57 19 7 1 -6 -28 -29 -64z m3777 47 c87 -30 275 -178 259 -203 -10 -17 -168
-10 -248 11 -135 34 -326 148 -326 194 0 24 244 23 315 -2z m-3972 -19 c15
-31 30 -93 21 -93 -6 0 -29 55 -38 93 -3 15 -4 27 -1 27 2 0 11 -12 18 -27z
m-3882 3 c65 -14 181 -65 194 -86 10 -17 -55 -48 -128 -60 -38 -7 -117 -10
-175 -8 -97 4 -113 7 -172 37 -86 45 -140 79 -140 90 0 9 71 27 135 35 77 8
226 4 286 -8z m1757 2 c29 -29 7 -101 -45 -149 -44 -42 -82 -56 -170 -63 l-82
-7 20 50 c10 28 19 62 19 76 0 13 10 31 23 40 28 20 145 55 213 64 5 0 15 -4
22 -11z m1549 -62 c55 -41 80 -87 94 -177 14 -91 6 -271 -14 -318 l-14 -33
-33 58 c-94 169 -87 147 -93 294 -3 74 -12 159 -20 188 l-16 53 27 -17 c15 -9
46 -31 69 -48z m3726 29 c65 -19 122 -37 127 -40 6 -3 10 -17 10 -31 0 -13 9
-50 20 -81 l19 -56 -77 5 c-111 7 -175 44 -216 125 -16 32 -22 94 -9 106 8 9
-11 13 126 -28z m1937 15 c29 -6 71 -15 93 -21 l39 -10 -31 -23 c-49 -36 -151
-85 -211 -101 -70 -19 -190 -19 -260 0 -65 17 -130 45 -130 56 0 26 125 82
222 98 75 12 216 13 278 1z m-3450 -5 c0 -18 -43 -86 -59 -95 -33 -17 -61 -12
-61 11 0 30 62 89 94 89 14 0 26 -2 26 -5z m-223 -30 c23 -14 43 -31 43 -38 0
-7 -9 -27 -21 -46 -20 -33 -20 -33 -41 -15 -27 25 -48 68 -48 99 0 31 12 32
67 0z m-4877 -15 c63 -32 75 -107 24 -151 -45 -39 -124 -27 -149 21 -28 54
-15 98 38 130 39 24 39 24 87 0z m3404 3 c7 -19 37 -216 33 -219 -1 -2 -19 20
-40 48 -29 40 -37 60 -37 94 0 72 28 120 44 77z m366 -88 c23 -48 35 -88 38
-128 7 -96 -9 -92 -83 21 l-66 101 21 41 c29 57 48 49 90 -35z m4159 60 c32
-16 41 -33 41 -79 0 -44 -24 -74 -68 -85 -74 -20 -122 14 -122 86 0 46 9 64
44 79 41 17 71 17 105 -1z m-6919 -11 c0 -9 -10 -34 -22 -55 -19 -35 -26 -39
-60 -39 -44 0 -126 19 -133 30 -5 8 170 79 198 80 9 0 17 -7 17 -16z m5930
-41 c93 -37 103 -49 51 -63 -23 -6 -61 -10 -84 -8 -34 2 -45 9 -64 37 -13 19
-23 43 -23 54 0 23 18 20 120 -20z m-2910 -34 c4 -13 10 -56 14 -94 l7 -71
-83 -28 c-46 -15 -89 -30 -97 -33 -21 -8 -5 102 22 152 23 41 102 108 120 102
6 -2 14 -14 17 -28z m719 -47 c6 -29 11 -68 11 -87 0 -31 -4 -35 -37 -44 -64
-18 -73 -15 -73 23 0 38 68 182 80 169 4 -4 13 -32 19 -61z m-4142 26 c42 -45
53 -70 53 -121 0 -32 -8 -56 -31 -90 -41 -63 -66 -69 -99 -26 -14 18 -55 67
-92 109 -38 41 -68 78 -68 81 0 6 182 77 201 78 3 1 19 -14 36 -31z m2951 -65
l-13 -58 -3 58 c-2 38 2 64 10 74 12 15 13 15 16 0 2 -9 -3 -43 -10 -74z
m1462 69 c0 -16 -122 -137 -127 -125 -5 15 29 83 53 104 29 25 74 38 74 21z
m-5645 -23 c144 -35 139 -26 69 -100 -33 -35 -71 -79 -84 -98 -13 -18 -38 -40
-56 -47 -41 -17 -141 -18 -173 -1 -47 24 -48 39 -8 120 35 71 60 96 132 136
26 14 16 14 120 -10z m4835 -101 l27 -86 -44 -49 -44 -48 6 105 c7 127 18 212
23 185 2 -11 16 -59 32 -107z m3160 91 c52 -18 97 -33 99 -35 2 -2 -30 -39
-71 -82 -41 -43 -83 -93 -93 -110 -11 -17 -24 -33 -31 -36 -7 -3 -34 18 -59
46 -46 48 -47 51 -42 98 9 74 52 150 86 150 9 0 59 -14 111 -31z m-7548 -19
c21 -23 38 -49 38 -59 0 -32 -63 -113 -120 -153 -63 -44 -173 -84 -276 -100
-106 -17 -113 -11 -72 62 45 82 98 142 175 197 66 47 162 92 197 93 11 0 36
-18 58 -40z m3358 -147 c0 -118 -58 -283 -123 -350 l-31 -33 -14 33 c-19 45
-17 91 8 172 16 52 23 108 27 219 l6 149 63 -65 64 -66 0 -59z m1664 181 c20
-8 20 -24 0 -53 -19 -27 -34 -14 -34 32 0 28 6 32 34 21z m3757 -33 c60 -38
83 -66 114 -133 30 -65 27 -94 -12 -109 -31 -12 -183 -12 -183 0 0 5 -45 56
-100 114 l-100 105 68 12 c37 7 83 19 102 26 51 18 61 17 111 -15z m-423 -26
c45 -21 97 -57 134 -92 63 -60 158 -186 158 -210 0 -19 -70 -17 -167 7 -144
34 -274 113 -313 190 -27 52 -26 58 17 102 47 48 76 49 171 3z m-4462 -91 c52
-87 55 -95 52 -150 -2 -31 -8 -59 -14 -61 -10 -3 -154 196 -154 214 0 5 7 33
16 62 19 65 25 62 100 -65z m-3450 82 c68 -32 124 -84 178 -165 62 -94 109
-192 98 -203 -15 -15 -148 19 -222 57 -85 45 -176 134 -218 213 -52 98 -41
121 58 122 37 0 71 -8 106 -24z m7481 -13 c21 -27 15 -55 -23 -119 -77 -128
-215 -228 -356 -255 -90 -18 -95 -12 -52 73 92 183 167 261 299 310 57 21 113
17 132 -9z m-7728 -145 c16 -44 24 -95 28 -166 l6 -103 -39 -74 c-21 -41 -51
-87 -66 -102 -25 -24 -30 -25 -43 -13 -24 25 -45 129 -45 221 0 115 19 206 70
334 l12 30 27 -32 c15 -18 37 -60 50 -95z m7898 35 c41 -93 55 -183 51 -318
-4 -124 -25 -205 -53 -205 -20 0 -75 69 -104 130 -22 47 -26 68 -25 150 0 68
6 115 22 165 23 76 55 135 72 135 6 0 23 -26 37 -57z m-3043 -2 c17 -6 16 -9
-10 -41 -51 -65 -118 -130 -132 -130 -11 0 -12 11 -7 53 4 28 12 63 18 77 20
42 81 61 131 41z m-834 -34 c0 -39 -29 -123 -48 -141 -17 -15 -147 -39 -163
-30 -10 6 2 97 15 113 15 19 145 80 174 80 17 1 22 -5 22 -22z m209 -194 c-92
-279 -118 -345 -137 -341 -26 5 -62 77 -55 113 16 96 70 213 145 315 54 72
102 123 106 111 2 -5 -25 -94 -59 -198z m-968 155 c8 -16 5 -28 -16 -59 -42
-59 -56 -68 -45 -27 6 18 10 51 10 74 0 22 3 44 7 47 8 8 31 -10 44 -35z
m1388 -85 l1 -81 -47 -41 c-27 -23 -52 -41 -57 -41 -11 0 -1 131 14 183 6 21
25 54 43 74 31 36 32 36 38 12 4 -13 7 -61 8 -106z m271 63 c0 -23 -25 -47
-43 -40 -16 6 -15 8 4 35 20 28 39 31 39 5z m-1258 -95 c33 -51 48 -84 48
-107 0 -19 -4 -34 -8 -34 -27 0 -102 133 -117 210 -7 32 -6 34 10 20 10 -8 40
-48 67 -89z m707 62 c17 -59 14 -307 -3 -348 -17 -39 -182 -215 -203 -215 -17
0 -14 13 39 185 60 195 139 415 149 415 4 0 13 -17 18 -37z m-4599 -2 c0 -24
-45 -61 -235 -191 -186 -128 -284 -199 -355 -259 -103 -87 -94 -87 -88 4 9
135 69 272 139 314 19 12 70 23 135 30 137 16 244 43 324 85 80 40 80 41 80
17z m8342 -45 c106 -44 176 -61 316 -80 64 -8 123 -21 138 -30 39 -26 83 -94
104 -163 22 -73 38 -223 23 -223 -5 0 -22 14 -39 31 -44 47 -173 145 -334 254
-215 146 -300 213 -300 235 0 14 0 14 92 -24z m-7909 -32 c45 -31 84 -61 86
-66 8 -22 -240 -230 -256 -215 -2 2 11 37 28 77 21 49 34 102 41 166 6 52 13
94 15 94 2 0 41 -25 86 -56z m3833 -45 c-19 -52 -42 -120 -51 -151 -9 -32 -18
-58 -20 -58 -10 0 -55 24 -55 29 0 3 21 38 46 76 25 39 59 100 76 137 18 37
33 66 35 64 2 -2 -12 -46 -31 -97z m3662 -32 c7 -77 17 -117 36 -155 30 -59
30 -62 13 -62 -37 0 -237 168 -237 199 0 9 13 25 27 35 37 27 135 86 143 86 4
0 12 -47 18 -103z m-3229 -95 c-14 -26 -14 -25 -17 33 -2 33 0 80 4 105 l8 45
9 -78 c8 -62 7 -84 -4 -105z m441 163 c0 -34 -51 -152 -75 -172 -34 -30 -97
-31 -145 -2 -61 37 -62 46 -12 95 77 76 110 94 174 94 44 0 58 -3 58 -15z
m-1549 -49 l23 -44 -25 -48 c-31 -60 -49 -68 -49 -21 0 59 13 157 20 157 4 0
18 -20 31 -44z m-116 -93 c-5 -41 -10 -53 -24 -53 -44 0 -52 40 -20 103 35 69
43 76 47 36 2 -19 1 -58 -3 -86z m690 77 c-29 -56 -97 -117 -139 -124 -21 -4
-41 -5 -44 -2 -12 13 24 100 49 119 28 20 75 34 122 36 27 1 27 1 12 -29z
m-4168 -37 c10 -61 10 -257 0 -304 -8 -39 -80 -159 -96 -159 -29 0 -72 134
-92 291 -10 73 -9 92 2 105 20 25 150 114 165 114 7 0 16 -20 21 -47z m8364
-24 c86 -59 100 -74 94 -103 -3 -12 -12 -72 -20 -133 -14 -114 -38 -186 -69
-212 -24 -20 -46 3 -86 90 l-32 70 4 157 c3 147 8 182 27 182 4 0 41 -23 82
-51z m-3505 -78 c43 -37 124 -69 145 -56 24 15 5 -15 -33 -52 -67 -64 -135
-91 -155 -60 -4 6 -20 43 -35 80 l-26 68 25 29 c14 17 27 30 30 30 3 0 25 -17
49 -39z m-1540 12 c-2 -10 -8 -43 -11 -73 -10 -80 -20 -91 -34 -37 -15 64 -14
77 11 104 26 27 41 30 34 6z m593 -43 c1 -20 -1 -22 -9 -10 -5 8 -9 29 -9 45
0 26 2 27 9 10 5 -11 9 -31 9 -45z m-228 5 c11 -25 23 -67 26 -93 5 -45 3 -50
-23 -69 -35 -25 -96 -43 -147 -43 l-37 0 6 43 c11 83 16 93 77 149 34 31 66
57 70 58 4 0 17 -20 28 -45z m-3945 -32 c4 -21 8 -92 8 -158 1 -114 -1 -123
-28 -174 -41 -79 -122 -160 -276 -274 -74 -55 -165 -126 -202 -159 l-67 -58 5
32 c39 299 46 328 109 433 51 83 115 155 211 236 79 67 210 159 226 159 4 0
10 -17 14 -37z m3682 7 c27 -17 32 -25 32 -59 0 -50 -16 -94 -33 -89 -38 13
-69 105 -51 152 8 20 12 20 52 -4z m625 -182 c5 -168 9 -204 31 -277 14 -47
26 -97 26 -112 0 -30 -50 -133 -79 -163 -18 -17 -20 -17 -46 0 l-27 18 8 95
c12 134 7 243 -16 333 -22 85 -25 143 -10 182 10 27 87 116 100 116 4 0 10
-87 13 -192z m4596 125 c53 -36 141 -112 196 -167 87 -87 107 -114 148 -196
48 -98 78 -217 93 -365 l7 -70 -54 48 c-30 27 -124 101 -208 164 -174 130
-235 187 -275 256 -24 40 -29 62 -33 145 -7 114 4 252 19 252 6 0 54 -30 107
-67z m-4459 -19 c0 -28 -15 -25 -23 6 -3 13 0 20 9 20 8 0 14 -10 14 -26z
m500 -9 c0 -3 -21 -58 -46 -123 -86 -216 -187 -401 -209 -380 -13 13 -18 212
-6 255 14 50 93 140 183 208 55 42 78 53 78 40z m-553 -115 c4 -33 2 -50 -5
-50 -11 0 -15 19 -26 110 -6 45 -6 45 10 17 8 -15 18 -50 21 -77z m168 18 c7
-20 -53 -110 -69 -105 -15 5 -29 67 -22 106 3 18 13 42 22 53 17 18 18 18 41
-9 12 -15 25 -36 28 -45z m456 -156 c-12 -95 -49 -169 -112 -226 -54 -48 -123
-86 -157 -86 -20 0 -18 5 20 53 60 73 87 121 158 287 34 80 68 151 74 159 17
21 28 -98 17 -187z m-1333 115 c15 -14 22 -32 22 -59 0 -46 -15 -49 -59 -12
-26 22 -31 33 -31 70 0 43 1 44 23 33 12 -6 32 -21 45 -32z m1465 8 c-1 -11
-9 -81 -17 -155 -8 -74 -20 -229 -27 -345 l-12 -210 -119 -305 c-277 -706
-318 -837 -318 -1025 0 -177 40 -305 202 -655 184 -396 193 -425 191 -661 -1
-159 -3 -169 -28 -219 -26 -51 -182 -222 -171 -186 4 10 9 51 13 91 8 97 -11
158 -136 427 -115 250 -141 313 -175 429 -44 154 -51 231 -51 579 0 315 1 329
27 450 56 257 128 466 207 600 22 36 72 104 111 150 82 98 114 149 141 227 23
69 24 136 3 173 -16 26 -16 36 4 157 12 71 36 172 53 224 22 66 33 122 36 187
l6 93 31 -3 c24 -2 31 -7 29 -23z m-1153 -19 c0 -55 -65 -97 -187 -121 -31 -6
-32 -6 -38 42 -4 26 -9 56 -12 66 -4 15 4 17 64 18 37 0 86 6 108 14 61 20 65
19 65 -19z m167 -203 c7 -144 -5 -219 -51 -318 -33 -71 -120 -195 -137 -195
-17 0 -22 52 -10 121 19 113 137 502 168 552 13 21 25 -42 30 -160z m437 125
c3 -13 6 -54 6 -92 0 -56 -4 -76 -22 -103 -13 -18 -26 -33 -29 -33 -6 0 -49
136 -49 153 0 12 71 97 80 97 4 0 10 -10 14 -22z m-4494 -48 c22 -42 26 -75
11 -85 -14 -8 -101 -23 -101 -17 0 19 56 150 62 146 5 -3 17 -23 28 -44z
m4336 -19 c20 -48 18 -81 -5 -81 -10 0 -23 6 -29 13 -16 19 -35 104 -28 123 6
15 8 15 27 -2 11 -10 27 -34 35 -53z m-410 17 c-59 -190 -91 -297 -113 -386
-35 -139 -48 -119 -48 74 1 134 2 142 28 187 23 39 132 167 143 167 1 0 -3
-19 -10 -42z m4734 -109 c0 -14 -6 -15 -47 -7 -78 15 -77 12 -42 80 l32 63 28
-60 c15 -33 28 -67 29 -76z m-5058 72 c25 -20 57 -96 45 -108 -9 -8 -73 60
-93 98 -14 27 -13 29 4 29 11 0 30 -9 44 -19z m-109 -23 c7 -25 3 -33 -12 -23
-13 8 -15 45 -2 45 5 0 11 -10 14 -22z m258 -10 c-22 -36 -44 -43 -49 -17 -4
22 24 49 50 49 l20 0 -21 -32z m-343 -47 c99 -60 206 -138 250 -184 25 -26 35
-47 42 -94 6 -33 19 -86 30 -118 11 -32 18 -60 15 -63 -7 -8 -114 76 -193 152
-87 83 -262 316 -262 348 0 19 43 5 118 -41z m-3558 -74 c0 -25 -125 -150
-144 -144 -6 2 -12 15 -14 29 -3 22 9 37 69 87 40 33 76 58 80 55 5 -3 9 -15
9 -27z m190 14 c5 -11 10 -40 10 -65 0 -52 -8 -55 -65 -32 -59 25 -75 87 -27
104 43 16 70 14 82 -7z m4324 0 c18 -20 41 -89 32 -98 -5 -5 -66 96 -66 110 0
13 17 7 34 -12z m4447 -63 c43 -34 79 -67 79 -74 0 -22 -12 -44 -24 -44 -21 0
-146 136 -146 159 0 12 2 21 6 21 3 0 41 -28 85 -62z m-178 31 c25 -39 -25
-99 -83 -99 -18 0 -20 6 -20 53 0 30 3 57 7 61 13 13 86 2 96 -15z m-4943 -19
c0 -5 -2 -10 -4 -10 -3 0 -8 5 -11 10 -3 6 -1 10 4 10 6 0 11 -4 11 -10z m820
-7 c0 -5 -9 -19 -20 -33 -18 -23 -20 -24 -20 -4 0 20 17 44 32 44 4 0 8 -3 8
-7z m-1101 -126 c41 -48 107 -117 148 -154 40 -36 72 -68 69 -70 -8 -9 -168
79 -206 113 -42 38 -96 136 -106 194 -8 42 -10 44 95 -83z m1416 0 c-26 -118
-35 -127 -170 -178 -65 -24 -147 -58 -183 -76 -36 -18 -67 -31 -69 -29 -3 2
69 218 92 279 6 14 20 17 89 17 90 0 159 18 216 57 19 13 36 19 38 13 2 -5 -4
-43 -13 -83z m-498 -37 c-3 -48 -13 -130 -23 -181 -18 -99 -23 -98 -39 2 -3
19 -11 44 -19 54 -12 17 -18 18 -53 7 -53 -16 -149 -79 -222 -146 -34 -31 -63
-56 -66 -56 -3 0 -5 11 -5 24 0 13 38 81 87 154 l87 129 40 -18 c23 -10 49
-19 58 -19 21 0 66 47 110 116 42 68 53 53 45 -66z m-4452 83 c13 -34 18 -180
6 -187 -14 -9 -98 49 -106 74 -8 24 8 55 48 98 35 37 42 39 52 15z m8885 -39
c55 -63 58 -80 22 -117 -17 -18 -45 -40 -62 -50 l-30 -18 0 104 c0 57 3 107 7
110 14 14 32 6 63 -29z m-8747 -15 c12 -19 -27 -114 -43 -104 -11 7 -14 108
-3 119 11 10 35 3 46 -15z m8601 -40 c10 -40 2 -89 -15 -89 -5 0 -21 23 -34
52 -26 57 -20 82 19 76 15 -2 24 -14 30 -39z m-4208 -20 c-8 -19 -15 -26 -15
-17 -1 23 20 75 26 62 2 -7 -3 -27 -11 -45z m374 -148 c0 -11 -80 -81 -92 -81
-17 0 -7 23 26 56 32 32 66 45 66 25z m-1218 -57 c15 -8 29 -18 32 -22 7 -12
42 -175 51 -234 6 -47 6 -48 -22 -48 -44 0 -53 -12 -64 -86 -21 -144 7 -273
78 -354 27 -30 54 -62 61 -71 10 -14 5 -47 -28 -188 -22 -94 -55 -251 -74
-349 -39 -205 -37 -207 -61 103 -11 154 -45 1090 -45 1261 0 17 22 13 72 -12z
m534 -50 c-66 -120 -148 -236 -158 -226 -16 16 10 116 42 164 28 41 140 142
148 133 2 -2 -12 -34 -32 -71z m509 -14 c-19 -21 -73 -45 -81 -37 -9 8 22 61
58 98 l33 34 3 -38 c2 -26 -2 -45 -13 -57z m187 -18 c-54 -90 -78 -115 -100
-103 -21 11 -57 50 -51 55 2 1 31 21 64 43 33 23 74 55 90 73 46 49 44 12 -3
-68z m-574 -20 c-6 -120 -17 -152 -72 -200 -44 -38 -146 -69 -146 -44 0 8 142
256 180 314 14 21 29 38 34 38 5 0 7 -48 4 -108z m-436 26 c52 -67 119 -271
177 -533 46 -210 58 -285 43 -270 -22 21 -61 112 -76 177 -27 118 -70 195
-186 339 -27 33 -78 308 -60 319 20 12 83 -7 102 -32z m662 -50 c-19 -38 -43
-68 -56 -68 -17 0 -7 27 29 80 40 59 59 51 27 -12z m534 -1223 l1 -940 -33 85
c-18 47 -51 127 -75 179 -25 56 -41 103 -37 115 2 12 17 59 32 106 27 82 28
93 29 295 0 173 -4 238 -24 370 -20 131 -25 201 -25 385 -1 204 1 231 21 295
12 39 29 99 38 134 9 35 26 89 38 120 l22 56 6 -130 c4 -71 7 -553 7 -1070z
m-364 1146 l38 -39 -34 -25 c-45 -33 -93 -57 -117 -57 -10 0 -31 14 -46 31
-25 31 -25 32 -8 52 22 24 102 77 118 77 6 0 28 -17 49 -39z m-204 -146 c0
-13 -22 -25 -46 -25 -17 0 -18 24 -2 50 11 18 14 18 30 3 10 -9 18 -22 18 -28z
m-141 -237 c-27 -192 -36 -552 -20 -764 25 -330 75 -545 204 -879 46 -121 50
-138 55 -242 6 -132 -8 -184 -64 -232 -116 -102 -302 -32 -379 142 -33 76 -68
224 -67 287 0 30 22 152 48 270 l48 215 1 215 c0 141 -4 236 -13 275 -14 63
-56 218 -69 251 -5 14 4 10 30 -13 42 -37 57 -41 57 -15 1 48 20 -25 39 -153
25 -161 37 -205 57 -205 20 0 18 97 -6 255 -50 318 -34 507 63 765 l32 85 3
-52 c2 -29 -7 -121 -19 -205z m-64 225 c-22 -55 -55 -160 -75 -241 -12 -51
-24 -91 -26 -89 -7 7 -64 232 -64 252 0 16 10 24 43 32 23 6 58 23 77 36 42
30 55 33 45 10z m-466 -99 c68 -73 120 -181 136 -284 l7 -45 -37 35 c-60 57
-177 263 -198 348 -5 22 -5 22 25 5 16 -10 47 -36 67 -59z m821 71 c0 -3 -9
-23 -20 -45 -29 -57 -117 -317 -150 -447 -36 -136 -69 -359 -71 -468 -2 -145
-17 -31 -18 140 -1 274 21 587 52 710 l12 50 80 32 c75 31 115 40 115 28z
m-832 -318 c25 -37 43 -70 40 -72 -3 -3 -25 12 -49 34 -50 44 -95 127 -104
192 l-7 44 37 -65 c21 -36 58 -95 83 -133z m1072 -332 c39 -392 45 -518 31
-634 -13 -104 -35 -171 -52 -154 -12 12 -80 168 -121 278 -25 68 -30 99 -35
210 -8 188 8 309 62 469 24 73 52 150 62 172 l18 39 3 -40 c1 -22 16 -175 32
-340z m-993 143 c16 -29 18 -61 17 -268 -1 -135 -8 -307 -17 -405 -10 -93 -24
-240 -32 -325 -9 -85 -16 -247 -16 -360 -1 -197 0 -210 29 -320 35 -131 68
-224 152 -425 86 -207 104 -276 104 -415 -1 -134 -16 -220 -49 -271 -29 -44
-203 -224 -211 -217 -3 3 6 46 20 94 54 192 71 308 71 484 0 191 -9 232 -136
630 -39 124 -88 277 -107 340 l-36 115 0 225 c0 242 16 419 60 660 21 116 95
439 109 478 8 21 24 13 42 -20z m143 -165 c124 -321 125 -528 4 -1078 -35
-160 -38 -180 -38 -340 1 -155 9 -235 40 -385 12 -58 -20 18 -68 159 -47 139
-50 154 -60 305 -12 191 1 502 32 741 14 109 23 247 27 433 3 149 9 272 14
272 4 0 26 -48 49 -107z m-451 -713 c21 -395 35 -470 177 -913 128 -403 134
-429 134 -616 -1 -311 -55 -544 -191 -813 l-34 -68 3 418 c4 432 -7 733 -34
909 -8 56 -39 228 -69 382 -72 368 -89 499 -81 627 5 86 43 326 64 404 9 34
17 -48 31 -330z m544 -872 c75 -128 237 -198 353 -153 54 21 118 75 141 119 9
17 24 56 34 86 l17 55 23 -50 c19 -44 21 -60 16 -150 -4 -55 -11 -116 -17
-136 -15 -55 -64 -114 -117 -146 -42 -25 -58 -28 -133 -28 -73 0 -93 4 -142
28 -69 34 -133 96 -170 164 -32 59 -64 187 -73 293 l-6 75 24 -57 c13 -31 36
-76 50 -100z m654 -210 c-3 -36 -29 -136 -61 -235 -31 -95 -70 -223 -86 -285
-35 -128 -67 -185 -108 -194 -15 -3 -33 -7 -40 -10 -7 -2 -36 1 -64 7 -40 9
-62 22 -98 58 -73 73 -116 171 -152 349 -17 84 -29 155 -26 158 4 3 37 -13 75
-35 122 -74 231 -90 340 -50 104 39 171 122 203 252 7 26 15 47 18 47 2 0 2
-28 -1 -62z m282 -5 c-5 -27 -34 -142 -64 -258 -78 -301 -77 -294 -73 -503 l4
-187 42 -105 c46 -117 98 -203 125 -208 26 -5 21 20 -27 126 -76 167 -81 191
-80 412 1 190 2 198 36 330 19 74 46 169 59 210 l23 75 17 -175 c34 -333 50
-596 59 -920 4 -179 7 -326 5 -328 -1 -2 -6 31 -10 72 -6 73 -25 119 -41 103
-5 -5 -12 -119 -16 -255 -16 -508 -16 -514 -133 -1177 -40 -226 -61 -387 -70
-525 -3 -52 -9 -113 -12 -135 l-6 -40 -13 50 c-40 150 -49 256 -49 550 1 345
8 390 111 681 107 302 116 346 118 569 l1 190 -36 102 c-45 128 -85 194 -176
294 -40 43 -81 95 -92 116 -27 53 -44 176 -44 323 0 210 26 274 204 485 46 55
97 117 113 138 16 20 30 37 31 37 1 0 -2 -21 -6 -47z m-784 -685 c33 -33 78
-69 100 -79 79 -37 169 -19 236 47 l36 35 13 -97 c6 -53 14 -103 17 -111 7
-18 -17 -16 -88 7 -132 45 -288 36 -436 -24 l-82 -33 30 44 c44 63 65 118 79
201 7 41 17 72 23 72 7 0 39 -28 72 -62z m361 -283 c119 -60 235 -179 298
-305 71 -144 93 -322 65 -527 -16 -121 -107 -371 -288 -790 -263 -613 -273
-730 -160 -1981 l23 -253 -23 -97 c-47 -195 -121 -360 -242 -543 -88 -131
-132 -175 -220 -219 -60 -31 -61 -31 -54 -8 4 13 21 49 37 81 80 160 176 431
234 658 52 208 74 354 86 578 19 368 -10 649 -99 941 -53 177 -95 245 -352
570 -179 228 -271 391 -313 556 -21 81 -23 112 -23 339 l0 250 33 98 c18 54
46 127 63 163 109 244 344 469 544 520 31 8 100 12 181 11 l131 -2 79 -40z
m-1059 -502 c-3 -10 -5 -2 -5 17 0 19 2 27 5 18 2 -10 2 -26 0 -35z m-10 -90
c-3 -10 -5 -2 -5 17 0 19 2 27 5 18 2 -10 2 -26 0 -35z m38 -873 c34 -94 96
-218 145 -290 117 -173 171 -349 280 -923 79 -417 80 -424 80 -782 0 -356 -10
-514 -41 -625 -53 -194 -220 -463 -390 -626 -70 -66 -179 -154 -192 -154 -9 0
31 112 133 370 253 642 303 808 320 1060 24 365 -31 680 -260 1500 -118 419
-137 507 -145 645 l-5 100 24 -100 c13 -55 36 -134 51 -175z m1535 -1226 c21
-627 41 -1197 44 -1269 5 -123 5 -128 -10 -96 -39 87 -134 535 -164 780 -41
326 -53 726 -29 981 16 183 106 756 116 746 2 -2 22 -516 43 -1142z m-346 356
c9 -47 34 -150 56 -229 24 -89 44 -185 50 -250 45 -480 54 -553 96 -766 52
-263 135 -557 244 -860 33 -92 60 -170 60 -173 0 -13 -38 30 -71 81 -39 61
-75 160 -104 287 -19 83 -38 120 -60 120 -18 0 -20 -52 -5 -115 5 -22 23 -121
40 -220 37 -218 52 -269 98 -360 44 -84 181 -226 259 -268 83 -44 187 -76 338
-102 219 -39 365 -84 323 -100 -31 -12 -426 -1 -440 13 -6 6 -26 12 -42 12
-21 0 -41 11 -66 35 l-36 35 -23 -40 c-12 -22 -26 -40 -30 -40 -4 0 -18 34
-30 74 -29 93 -43 115 -64 98 -8 -7 -20 -26 -27 -42 -17 -42 -27 -37 -34 17
-10 69 -26 115 -39 110 -7 -2 -22 -21 -34 -43 l-23 -39 0 58 c0 42 -4 59 -15
63 -24 10 -40 -10 -90 -114 -39 -80 -49 -93 -56 -77 -4 11 -15 101 -24 199
-19 213 -23 236 -43 243 -29 12 -43 -25 -82 -220 -6 -32 -14 -57 -16 -55 -2 3
-11 40 -19 84 -21 104 -34 136 -54 132 -22 -4 -28 -43 -31 -193 -2 -154 -12
-250 -23 -220 -3 11 -16 78 -27 150 -15 91 -28 143 -46 174 l-25 45 41 56 c59
79 105 182 144 317 49 170 60 255 60 458 -1 210 -9 254 -108 612 -138 496
-166 692 -166 1183 0 260 8 310 72 461 l43 102 7 -304 c4 -207 11 -331 22
-389z m-1045 -85 c107 -429 136 -640 128 -930 -6 -234 -25 -334 -107 -578 -69
-204 -193 -517 -237 -597 -102 -184 -253 -320 -434 -390 -79 -30 -310 -93
-317 -85 -2 2 31 27 73 55 141 95 376 298 528 455 159 165 296 435 372 735 40
156 48 269 42 540 -6 273 -15 341 -96 752 -88 447 -121 620 -120 637 1 24 112
-367 168 -594z m290 303 c96 -130 163 -251 201 -365 32 -95 34 -104 38 -293 5
-226 -5 -362 -50 -660 l-33 -215 -7 135 c-27 500 -21 448 -108 885 -72 362
-107 528 -126 588 -13 40 21 11 85 -75z m545 -293 c16 -303 63 -584 151 -910
107 -392 116 -432 125 -542 11 -130 -1 -368 -25 -471 -18 -78 -80 -266 -99
-301 l-13 -24 -6 34 c-15 79 -63 561 -143 1429 -19 208 -30 702 -19 856 10
133 19 110 29 -71z m-919 -171 c63 -313 84 -587 68 -869 -10 -162 -16 -210
-46 -325 -55 -213 -145 -415 -242 -544 -52 -71 -186 -219 -191 -213 -3 2 25
87 61 188 182 505 237 799 265 1424 15 317 33 486 52 467 5 -5 20 -63 33 -128z
m670 -768 c-25 -484 -107 -803 -327 -1272 l-80 -171 -181 -135 c-309 -230
-477 -327 -605 -349 -101 -18 -98 0 10 66 116 72 155 101 243 185 39 37 106
93 150 125 124 91 191 152 273 250 129 154 232 329 308 526 62 160 144 514
182 784 9 68 21 121 25 118 5 -3 6 -60 2 -127z m279 -907 c9 -85 20 -216 23
-291 5 -124 4 -138 -11 -144 -22 -8 -338 16 -350 27 -6 5 -1 18 11 31 74 81
222 350 274 500 29 84 32 78 53 -123z m680 -434 c21 -16 60 -61 86 -99 51 -76
162 -188 221 -224 81 -49 194 -75 429 -97 264 -25 359 -43 540 -106 97 -34
118 -45 106 -56 -11 -11 -149 -21 -303 -22 l-133 -1 -61 45 c-74 54 -130 72
-366 119 -199 39 -257 56 -320 92 -73 42 -160 121 -209 190 -46 65 -104 202
-104 247 0 19 5 17 38 -18 20 -22 54 -53 76 -70z m-778 -67 c17 -18 -16 -23
-169 -29 -134 -5 -170 -10 -210 -28 -78 -34 -174 -101 -302 -210 -161 -138
-276 -224 -356 -266 -63 -33 -72 -35 -160 -34 -77 0 -90 2 -69 11 148 66 244
125 520 324 205 148 315 211 409 234 43 10 326 8 337 -2z m104 -67 c-33 -84
-24 -118 28 -104 20 5 19 1 -10 -113 -16 -65 -32 -122 -35 -127 -10 -17 -21
16 -33 99 -13 91 -27 115 -52 86 -20 -21 -63 -159 -79 -246 -11 -66 -11 -66
-44 -66 -44 0 -48 16 -29 107 28 138 94 280 156 340 38 35 109 85 115 79 2 -2
-5 -27 -17 -55z m-1200 -12 c-29 -73 -81 -157 -122 -196 -45 -43 -300 -202
-423 -264 -90 -45 -109 -50 -185 -55 -144 -10 -168 16 -114 124 51 102 99 127
418 216 162 45 234 80 348 167 50 38 93 67 95 65 2 -2 -6 -28 -17 -57z m997
-25 c8 -21 -10 -31 -77 -44 -228 -43 -240 -49 -421 -227 -84 -81 -162 -150
-183 -158 -35 -15 -156 -33 -156 -23 0 3 39 34 88 71 48 36 125 100 172 143
214 194 326 253 483 254 71 0 89 -3 94 -16z m-107 -129 c-14 -8 -34 -14 -45
-15 -42 -1 -134 -67 -256 -186 -87 -85 -134 -124 -150 -124 l-22 0 19 23 c143
161 224 242 268 264 77 39 117 52 166 52 44 0 44 0 20 -14z m684 -123 c4 -48
8 -108 11 -134 l4 -48 -45 0 c-44 0 -45 1 -40 28 3 15 15 78 27 139 12 62 25
110 29 108 5 -3 11 -44 14 -93z m-674 49 c0 -5 -16 -15 -36 -21 -19 -7 -63
-38 -97 -69 -112 -102 -169 -151 -178 -151 -54 0 165 204 254 237 40 14 57 16
57 4z m389 -110 c28 -120 28 -121 -15 -121 l-37 0 7 68 c8 80 17 142 21 142 2
0 13 -40 24 -89z m2087 70 c74 -34 95 -95 51 -147 l-24 -28 -30 22 c-35 25
-258 124 -323 143 -40 12 -42 14 -19 20 13 4 87 7 164 8 117 0 147 -3 181 -18z
m-4421 -196 c16 0 22 10 30 49 l11 50 21 -74 c12 -41 21 -76 19 -77 -7 -8
-550 -23 -556 -16 -7 8 -70 159 -70 167 0 3 29 -25 65 -62 79 -80 86 -77 100
44 l10 85 77 -106 c77 -105 110 -128 122 -87 11 38 36 173 36 195 0 49 15 34
64 -65 39 -79 56 -103 71 -103z m189 173 c-22 -39 -69 -98 -76 -98 -5 0 -8 14
-6 32 2 24 12 38 37 55 38 25 56 30 45 11z m1746 -25 c0 -13 -84 -115 -111
-134 -18 -13 -41 -19 -60 -17 -31 3 -30 4 57 81 77 68 114 91 114 70z m228
-141 c-22 -2 -42 -1 -45 2 -3 3 0 36 8 73 l12 68 33 -70 32 -70 -40 -3z m618
22 c-6 -23 -34 -33 -49 -18 -3 4 6 30 21 58 l27 51 3 -34 c2 -19 1 -44 -2 -57z
m134 42 c7 -25 9 -49 5 -55 -8 -13 -52 -15 -59 -2 -7 10 25 101 35 101 3 0 12
-20 19 -44z m-3546 -7 c26 -12 68 -68 80 -107 10 -31 -28 -45 -94 -32 -60 11
-85 26 -100 58 -14 32 -5 59 28 77 33 17 54 18 86 4z m3112 -46 c-11 -11 -19
6 -11 24 8 17 8 17 12 0 3 -10 2 -21 -1 -24z m540 -10 c-11 -11 -19 6 -11 24
8 17 8 17 12 0 3 -10 2 -21 -1 -24z M4848 5341 c-178 -57 -308 -206 -368 -422
-42 -154 -51 -574 -15 -713 40 -154 182 -334 314 -399 60 -29 74 -32 161 -32
91 0 100 2 171 37 60 29 94 56 160 125 101 106 151 178 202 297 66 152 81 235
81 441 1 202 -7 245 -72 370 -119 229 -414 366 -634 296z m238 -55 c171 -45
331 -197 385 -365 19 -58 22 -89 21 -248 0 -196 -8 -240 -61 -380 -72 -186
-202 -349 -334 -419 -68 -37 -76 -39 -156 -37 -71 1 -93 6 -147 33 -84 41
-169 134 -223 243 -52 105 -59 143 -67 329 -8 182 7 367 37 464 22 72 82 198
98 208 5 3 -4 -18 -19 -47 -45 -83 -53 -148 -47 -403 5 -247 15 -310 64 -410
37 -76 123 -160 200 -196 56 -27 72 -30 136 -26 97 5 207 56 276 128 176 184
220 587 90 831 -39 73 -146 176 -222 213 -166 82 -307 71 -421 -33 l-51 -45
45 48 c104 111 248 151 396 112z m-283 -143 c-20 -49 -12 -122 21 -178 35 -59
152 -165 228 -205 74 -40 157 -47 199 -17 13 9 34 24 47 33 32 23 36 13 10
-26 -80 -118 -255 -95 -404 54 -35 35 -76 89 -95 126 -28 55 -33 76 -34 136 0
57 4 76 19 93 26 29 27 27 9 -16z m120 10 c-4 -10 -13 -29 -20 -43 -19 -36
-16 -60 13 -118 28 -56 77 -101 145 -132 60 -27 115 -25 175 5 58 30 54 29 54
9 0 -27 -63 -82 -103 -89 -29 -6 -49 -2 -92 19 -76 38 -198 154 -230 221 -25
50 -26 55 -11 83 23 45 84 84 69 45z m113 -35 c-9 -13 -16 -43 -16 -71 0 -40
5 -53 29 -78 40 -39 109 -41 164 -4 30 21 37 23 37 10 0 -9 -13 -30 -29 -46
-60 -59 -174 -23 -245 78 -27 38 -28 44 -16 73 14 35 45 60 73 60 17 0 17 -2
3 -22z m140 -53 c18 -28 9 -53 -23 -61 -39 -10 -73 11 -73 45 0 17 7 34 16 39
24 13 63 2 80 -23z m-471 -218 c65 -224 337 -436 510 -397 26 6 64 19 86 30
50 26 53 7 8 -45 -65 -73 -213 -85 -333 -26 -145 71 -263 251 -291 444 -10 63
1 60 20 -6z m120 -48 c82 -84 184 -158 242 -175 95 -28 198 -8 261 49 l22 20
0 -35 c0 -45 -35 -97 -85 -125 -91 -52 -223 -18 -337 86 -53 48 -158 190 -158
212 0 18 17 8 55 -32z m-21 -336 c61 -66 129 -110 207 -134 69 -21 172 -25
230 -7 22 6 42 9 45 5 15 -15 -44 -90 -91 -115 -48 -26 -178 -22 -235 7 -63
33 -125 85 -160 136 -44 64 -100 180 -100 207 1 21 3 21 28 -12 15 -19 49 -58
76 -87z m-101 -70 c39 -76 117 -164 178 -200 30 -18 90 -42 133 -53 44 -11 81
-22 83 -24 2 -2 -19 -9 -48 -16 -111 -27 -237 11 -300 91 -60 76 -119 242
-118 334 0 26 3 23 23 -25 12 -30 35 -78 49 -107z M4442 5037 c-38 -45 -93
-249 -113 -411 -23 -192 7 -423 81 -613 39 -102 72 -146 251 -340 78 -84 160
-176 181 -205 56 -74 119 -212 167 -363 46 -146 53 -161 71 -150 21 13 4 127
-38 250 -64 190 -137 297 -362 540 -134 144 -192 228 -230 334 -51 140 -63
232 -57 451 5 201 12 243 62 403 14 43 25 87 25 98 0 22 -22 25 -38 6z M413
9060 c-34 -14 -41 -59 -13 -82 28 -23 31 -23 64 3 30 24 33 49 8 72 -21 19
-27 20 -59 7z M9578 9039 c-21 -12 -24 -59 -6 -77 17 -17 74 -15 92 4 20 20
20 27 -1 52 -22 26 -62 36 -85 21z M8206 274 c-10 -47 -15 -88 -12 -91 5 -6 9
7 30 110 7 37 10 67 6 67 -4 0 -15 -39 -24 -86z M8520 350 c0 -5 5 -10 10 -10
6 0 10 5 10 10 0 6 -4 10 -10 10 -5 0 -10 -4 -10 -10z M9066 274 c-10 -47 -15
-88 -12 -91 5 -6 9 7 30 110 7 37 10 67 6 67 -4 0 -15 -39 -24 -86z M9146 349
c-3 -8 -10 -41 -16 -74 -6 -33 -14 -68 -16 -77 -3 -10 -1 -18 3 -18 10 0 46
171 38 178 -2 3 -7 -1 -9 -9z M7909 321 c-38 -38 -41 -101 -7 -125 29 -20 79
-20 104 0 18 14 18 15 1 10 -53 -17 -69 -17 -92 -2 -69 45 21 166 94 126 12
-6 21 -7 21 -1 0 12 -25 21 -62 21 -19 0 -39 -10 -59 -29z M8910 269 c-28 -45
-49 -83 -47 -85 2 -3 12 7 21 21 14 21 24 25 66 25 43 0 50 -3 50 -19 0 -11 5
-23 10 -26 6 -3 10 -3 10 1 0 20 -44 164 -51 164 -4 0 -30 -37 -59 -81z m75 4
l7 -33 -42 0 c-42 0 -42 0 -28 23 8 12 21 32 29 44 15 25 22 18 34 -34z M8060
290 c-22 -22 -27 -79 -8 -98 19 -19 66 -14 88 8 22 22 27 79 8 98 -19 19 -66
14 -88 -8z m71 0 c25 -14 25 -54 -1 -80 -23 -23 -33 -24 -61 -10 -25 14 -25
54 1 80 23 23 33 24 61 10z M8270 290 c-22 -22 -27 -79 -8 -98 19 -19 66 -14
88 8 22 22 27 79 8 98 -19 19 -66 14 -88 -8z m71 0 c25 -14 25 -54 -1 -80 -23
-23 -33 -24 -61 -10 -25 14 -25 54 1 80 23 23 33 24 61 10z M8416 284 c-3 -16
-8 -47 -11 -69 -8 -51 10 -26 19 27 5 27 15 42 34 53 18 10 22 14 10 15 -9 0
-20 -5 -24 -11 -5 -8 -9 -8 -14 1 -5 8 -10 3 -14 -16z M8517 303 c-2 -4 -7
-26 -11 -48 -4 -22 -9 -48 -12 -57 -3 -10 -1 -18 4 -18 4 0 14 28 20 62 11 58
10 81 -1 61z M8575 300 c-1 -3 -5 -23 -9 -45 -4 -22 -9 -48 -12 -57 -3 -10 -1
-18 4 -18 5 0 13 20 17 45 7 53 44 87 74 68 17 -11 19 -28 8 -80 -4 -18 -3
-33 2 -33 16 0 24 99 11 115 -12 14 -87 18 -95 5z M8740 290 c-22 -22 -27 -79
-8 -98 7 -7 24 -12 38 -12 14 0 31 5 38 12 9 9 12 8 12 -5 0 -9 -12 -24 -26
-34 -21 -13 -32 -15 -55 -6 -16 6 -29 8 -29 3 0 -24 81 -27 102 -2 18 19 50
162 37 162 -5 0 -9 -5 -9 -10 0 -7 -6 -7 -19 0 -30 16 -59 12 -81 -10z m71 0
c29 -16 25 -65 -6 -86 -56 -37 -103 28 -55 76 23 23 33 24 61 10z M9241 291
c-23 -23 -28 -80 -9 -99 19 -19 88 -13 88 9 0 5 -11 4 -24 -2 -54 -25 -89 38
-46 81 23 23 33 24 62 9 16 -9 19 -8 16 3 -8 22 -64 22 -87 -1z M9370 290
c-22 -22 -27 -79 -8 -98 19 -19 66 -14 88 8 22 22 27 79 8 98 -19 19 -66 14
-88 -8z m71 0 c25 -14 25 -54 -1 -80 -23 -23 -33 -24 -61 -10 -25 14 -25 54 1
80 23 23 33 24 61 10z M9516 281 c-3 -14 -8 -44 -11 -66 -8 -51 10 -26 19 27
8 41 35 63 66 53 22 -7 24 -21 11 -77 -5 -22 -5 -38 0 -38 5 0 9 6 9 13 0 68
51 125 85 97 15 -13 15 -35 -1 -92 -3 -10 -1 -18 4 -18 6 0 13 23 17 50 9 63
-5 84 -49 76 -17 -4 -35 -6 -41 -6 -101 8 -104 7 -109 -19z M9160 190 c0 -5 5
-10 10 -10 6 0 10 5 10 10 0 6 -4 10 -10 10 -5 0 -10 -4 -10 -10z"/>
</g>
</svg>
